<svg width="1440" height="410" viewBox="0 0 1440 410" version="1.1" xmlns="http://www.w3.org/2000/svg" xmlns:xlink="http://www.w3.org/1999/xlink">
<title>Vector</title>
<desc>Created using Figma</desc>
<g id="Canvas" transform="translate(-2448 -336)">
<g id="Vector">
<use xlink:href="#path0_stroke" transform="translate(2210 339)" fill="url(#paint0_linear)" fill-opacity="0.2"/>
</g>
</g>
<defs>
<linearGradient id="paint0_linear" x1="0" y1="0" x2="1" y2="0" gradientUnits="userSpaceOnUse" gradientTransform="matrix(1560.55 31.6957 -135.658 7490.46 383.292 -3376.29)">
<stop offset="0" stop-color="#CDDC39"/>
<stop offset="0.530387" stop-color="#8BC34A"/>
<stop offset="1" stop-color="#009688"/>
</linearGradient>
<path id="path0_stroke" d="M 545.05 303.55L 541.397 311.776L 544.76 313.269L 548.206 311.979L 545.05 303.55ZM 974.823 142.604L 978.664 134.464L 975.227 132.842L 971.667 134.175L 974.823 142.604ZM 1389.82 338.462L 1385.98 346.601L 1391.67 349.289L 1396.15 344.858L 1389.82 338.462ZM 222.276 272.781L 213.552 274.993L 216.027 284.755L 225.451 281.203L 222.276 272.781ZM 782.696 61.5385L 789.194 55.3107L 785.082 51.0211L 779.522 53.1169L 782.696 61.5385ZM 1048.13 338.462L 1041.63 344.689L 1048.71 352.077L 1055.13 344.111L 1048.13 338.462ZM 1305.28 19.5266L 1311.43 12.9541L 1304.36 6.33638L 1298.28 13.8775L 1305.28 19.5266ZM -3.65232 69.7641L 541.397 311.776L 548.702 295.325L 3.65232 53.3129L -3.65232 69.7641ZM 548.206 311.979L 977.98 151.032L 971.667 134.175L 541.893 295.122L 548.206 311.979ZM 970.982 150.743L 1385.98 346.601L 1393.66 330.322L 978.664 134.464L 970.982 150.743ZM 1396.15 344.858L 1718.33 25.9227L 1705.67 13.1305L 1383.49 332.065L 1396.15 344.858ZM 144.387 2.21202L 213.552 274.993L 231 270.569L 161.834 -2.21202L 144.387 2.21202ZM 225.451 281.203L 785.871 69.9601L 779.522 53.1169L 219.102 264.359L 225.451 281.203ZM 776.199 67.7662L 1041.63 344.689L 1054.62 332.234L 789.194 55.3107L 776.199 67.7662ZM 1055.13 344.111L 1312.29 25.1757L 1298.28 13.8775L 1041.12 332.812L 1055.13 344.111ZM 1299.13 26.0991L 1705.85 406.572L 1718.15 393.428L 1311.43 12.9541L 1299.13 26.0991Z"/>
</defs>
</svg>
